<mxfile host="app.diagrams.net" modified="2023-07-18T17:08:37.128Z" agent="Mozilla/5.0 (Windows NT 10.0; Win64; x64) AppleWebKit/537.36 (KHTML, like Gecko) Chrome/114.0.0.0 Safari/537.36" etag="3E62TwWNDLmPtsGvZ9nb" version="21.6.2" type="github">
  <diagram name="Page-1" id="mPFvJur8a9Y5XNeI-Uhb">
    <mxGraphModel dx="1434" dy="786" grid="1" gridSize="10" guides="1" tooltips="1" connect="1" arrows="1" fold="1" page="1" pageScale="1" pageWidth="850" pageHeight="1100" math="0" shadow="0">
      <root>
        <mxCell id="0" />
        <mxCell id="1" parent="0" />
        <mxCell id="eLMidbIIFvHWsHp9n2H9-1" value="AWS Cloud" style="points=[[0,0],[0.25,0],[0.5,0],[0.75,0],[1,0],[1,0.25],[1,0.5],[1,0.75],[1,1],[0.75,1],[0.5,1],[0.25,1],[0,1],[0,0.75],[0,0.5],[0,0.25]];outlineConnect=0;gradientColor=none;html=1;whiteSpace=wrap;fontSize=12;fontStyle=0;container=1;pointerEvents=0;collapsible=0;recursiveResize=0;shape=mxgraph.aws4.group;grIcon=mxgraph.aws4.group_aws_cloud_alt;strokeColor=#232F3E;fillColor=none;verticalAlign=top;align=left;spacingLeft=30;fontColor=#232F3E;dashed=0;" vertex="1" parent="1">
          <mxGeometry x="35" y="20" width="780" height="580" as="geometry" />
        </mxCell>
        <mxCell id="eLMidbIIFvHWsHp9n2H9-3" value="Availability Zone A" style="fillColor=none;strokeColor=#147EBA;dashed=1;verticalAlign=top;fontStyle=0;fontColor=#147EBA;whiteSpace=wrap;html=1;" vertex="1" parent="eLMidbIIFvHWsHp9n2H9-1">
          <mxGeometry x="60" y="40" width="250" height="520" as="geometry" />
        </mxCell>
        <mxCell id="eLMidbIIFvHWsHp9n2H9-7" value="VPC" style="points=[[0,0],[0.25,0],[0.5,0],[0.75,0],[1,0],[1,0.25],[1,0.5],[1,0.75],[1,1],[0.75,1],[0.5,1],[0.25,1],[0,1],[0,0.75],[0,0.5],[0,0.25]];outlineConnect=0;gradientColor=none;html=1;whiteSpace=wrap;fontSize=12;fontStyle=0;container=1;pointerEvents=0;collapsible=0;recursiveResize=0;shape=mxgraph.aws4.group;grIcon=mxgraph.aws4.group_vpc;strokeColor=#248814;fillColor=none;verticalAlign=top;align=left;spacingLeft=30;fontColor=#AAB7B8;dashed=0;" vertex="1" parent="eLMidbIIFvHWsHp9n2H9-1">
          <mxGeometry x="30" y="70" width="620" height="490" as="geometry" />
        </mxCell>
        <mxCell id="eLMidbIIFvHWsHp9n2H9-8" value="Public subnet" style="points=[[0,0],[0.25,0],[0.5,0],[0.75,0],[1,0],[1,0.25],[1,0.5],[1,0.75],[1,1],[0.75,1],[0.5,1],[0.25,1],[0,1],[0,0.75],[0,0.5],[0,0.25]];outlineConnect=0;gradientColor=none;html=1;whiteSpace=wrap;fontSize=12;fontStyle=0;container=1;pointerEvents=0;collapsible=0;recursiveResize=0;shape=mxgraph.aws4.group;grIcon=mxgraph.aws4.group_security_group;grStroke=0;strokeColor=#248814;fillColor=#E9F3E6;verticalAlign=top;align=left;spacingLeft=30;fontColor=#248814;dashed=0;" vertex="1" parent="eLMidbIIFvHWsHp9n2H9-7">
          <mxGeometry x="110" y="30" width="130" height="130" as="geometry" />
        </mxCell>
        <mxCell id="eLMidbIIFvHWsHp9n2H9-16" value="" style="sketch=0;points=[[0,0,0],[0.25,0,0],[0.5,0,0],[0.75,0,0],[1,0,0],[0,1,0],[0.25,1,0],[0.5,1,0],[0.75,1,0],[1,1,0],[0,0.25,0],[0,0.5,0],[0,0.75,0],[1,0.25,0],[1,0.5,0],[1,0.75,0]];outlineConnect=0;fontColor=#232F3E;gradientColor=#945DF2;gradientDirection=north;fillColor=#5A30B5;strokeColor=#ffffff;dashed=0;verticalLabelPosition=bottom;verticalAlign=top;align=center;html=1;fontSize=12;fontStyle=0;aspect=fixed;shape=mxgraph.aws4.resourceIcon;resIcon=mxgraph.aws4.elastic_load_balancing;" vertex="1" parent="eLMidbIIFvHWsHp9n2H9-7">
          <mxGeometry x="302.16" y="60" width="50" height="50" as="geometry" />
        </mxCell>
        <mxCell id="eLMidbIIFvHWsHp9n2H9-25" style="edgeStyle=orthogonalEdgeStyle;rounded=0;orthogonalLoop=1;jettySize=auto;html=1;entryX=1;entryY=0.5;entryDx=0;entryDy=0;" edge="1" parent="eLMidbIIFvHWsHp9n2H9-7" source="eLMidbIIFvHWsHp9n2H9-17" target="eLMidbIIFvHWsHp9n2H9-8">
          <mxGeometry relative="1" as="geometry" />
        </mxCell>
        <mxCell id="eLMidbIIFvHWsHp9n2H9-17" value="" style="outlineConnect=0;dashed=0;verticalLabelPosition=bottom;verticalAlign=top;align=center;html=1;shape=mxgraph.aws3.internet_gateway;fillColor=#F58534;gradientColor=none;" vertex="1" parent="eLMidbIIFvHWsHp9n2H9-7">
          <mxGeometry x="308" y="-20" width="38.33" height="40" as="geometry" />
        </mxCell>
        <mxCell id="eLMidbIIFvHWsHp9n2H9-29" value="Availability Zone B" style="fillColor=none;strokeColor=#147EBA;dashed=1;verticalAlign=top;fontStyle=0;fontColor=#147EBA;whiteSpace=wrap;html=1;" vertex="1" parent="eLMidbIIFvHWsHp9n2H9-7">
          <mxGeometry x="355" y="-30" width="250" height="520" as="geometry" />
        </mxCell>
        <mxCell id="eLMidbIIFvHWsHp9n2H9-30" value="Public subnet" style="points=[[0,0],[0.25,0],[0.5,0],[0.75,0],[1,0],[1,0.25],[1,0.5],[1,0.75],[1,1],[0.75,1],[0.5,1],[0.25,1],[0,1],[0,0.75],[0,0.5],[0,0.25]];outlineConnect=0;gradientColor=none;html=1;whiteSpace=wrap;fontSize=12;fontStyle=0;container=1;pointerEvents=0;collapsible=0;recursiveResize=0;shape=mxgraph.aws4.group;grIcon=mxgraph.aws4.group_security_group;grStroke=0;strokeColor=#248814;fillColor=#E9F3E6;verticalAlign=top;align=left;spacingLeft=30;fontColor=#248814;dashed=0;" vertex="1" parent="eLMidbIIFvHWsHp9n2H9-7">
          <mxGeometry x="435" y="30" width="130" height="130" as="geometry" />
        </mxCell>
        <mxCell id="eLMidbIIFvHWsHp9n2H9-31" value="Private subnet" style="points=[[0,0],[0.25,0],[0.5,0],[0.75,0],[1,0],[1,0.25],[1,0.5],[1,0.75],[1,1],[0.75,1],[0.5,1],[0.25,1],[0,1],[0,0.75],[0,0.5],[0,0.25]];outlineConnect=0;gradientColor=none;html=1;whiteSpace=wrap;fontSize=12;fontStyle=0;container=1;pointerEvents=0;collapsible=0;recursiveResize=0;shape=mxgraph.aws4.group;grIcon=mxgraph.aws4.group_security_group;grStroke=0;strokeColor=#147EBA;fillColor=#E6F2F8;verticalAlign=top;align=left;spacingLeft=30;fontColor=#147EBA;dashed=0;" vertex="1" parent="eLMidbIIFvHWsHp9n2H9-7">
          <mxGeometry x="435" y="180" width="130" height="130" as="geometry" />
        </mxCell>
        <mxCell id="eLMidbIIFvHWsHp9n2H9-32" value="Amazon EC2" style="sketch=0;outlineConnect=0;fontColor=#232F3E;gradientColor=none;strokeColor=#ffffff;fillColor=#232F3E;dashed=0;verticalLabelPosition=middle;verticalAlign=bottom;align=center;html=1;whiteSpace=wrap;fontSize=10;fontStyle=1;spacing=3;shape=mxgraph.aws4.productIcon;prIcon=mxgraph.aws4.ec2;" vertex="1" parent="eLMidbIIFvHWsHp9n2H9-31">
          <mxGeometry x="24" y="30" width="80" height="100" as="geometry" />
        </mxCell>
        <mxCell id="eLMidbIIFvHWsHp9n2H9-33" value="Private subnet" style="points=[[0,0],[0.25,0],[0.5,0],[0.75,0],[1,0],[1,0.25],[1,0.5],[1,0.75],[1,1],[0.75,1],[0.5,1],[0.25,1],[0,1],[0,0.75],[0,0.5],[0,0.25]];outlineConnect=0;gradientColor=none;html=1;whiteSpace=wrap;fontSize=12;fontStyle=0;container=1;pointerEvents=0;collapsible=0;recursiveResize=0;shape=mxgraph.aws4.group;grIcon=mxgraph.aws4.group_security_group;grStroke=0;strokeColor=#147EBA;fillColor=#E6F2F8;verticalAlign=top;align=left;spacingLeft=30;fontColor=#147EBA;dashed=0;" vertex="1" parent="eLMidbIIFvHWsHp9n2H9-7">
          <mxGeometry x="435" y="330" width="130" height="130" as="geometry" />
        </mxCell>
        <mxCell id="eLMidbIIFvHWsHp9n2H9-34" value="" style="sketch=0;outlineConnect=0;fontColor=#232F3E;gradientColor=none;fillColor=#2E27AD;strokeColor=none;dashed=0;verticalLabelPosition=bottom;verticalAlign=top;align=center;html=1;fontSize=12;fontStyle=0;aspect=fixed;pointerEvents=1;shape=mxgraph.aws4.rds_instance;" vertex="1" parent="eLMidbIIFvHWsHp9n2H9-33">
          <mxGeometry x="26" y="40" width="78" height="78" as="geometry" />
        </mxCell>
        <mxCell id="eLMidbIIFvHWsHp9n2H9-35" value="" style="sketch=0;outlineConnect=0;fontColor=#232F3E;gradientColor=none;fillColor=#3F8624;strokeColor=none;dashed=0;verticalLabelPosition=bottom;verticalAlign=top;align=center;html=1;fontSize=12;fontStyle=0;aspect=fixed;pointerEvents=1;shape=mxgraph.aws4.bucket;" vertex="1" parent="eLMidbIIFvHWsHp9n2H9-7">
          <mxGeometry x="495" y="120" width="28.85" height="30" as="geometry" />
        </mxCell>
        <mxCell id="eLMidbIIFvHWsHp9n2H9-36" value="" style="sketch=0;outlineConnect=0;fontColor=#232F3E;gradientColor=none;fillColor=#232F3D;strokeColor=none;dashed=0;verticalLabelPosition=bottom;verticalAlign=top;align=center;html=1;fontSize=12;fontStyle=0;aspect=fixed;pointerEvents=1;shape=mxgraph.aws4.mobile_client;" vertex="1" parent="eLMidbIIFvHWsHp9n2H9-7">
          <mxGeometry x="515" y="70" width="19.97" height="38" as="geometry" />
        </mxCell>
        <mxCell id="eLMidbIIFvHWsHp9n2H9-37" value="" style="sketch=0;outlineConnect=0;fontColor=#232F3E;gradientColor=none;fillColor=#232F3D;strokeColor=none;dashed=0;verticalLabelPosition=bottom;verticalAlign=top;align=center;html=1;fontSize=12;fontStyle=0;aspect=fixed;pointerEvents=1;shape=mxgraph.aws4.client;" vertex="1" parent="eLMidbIIFvHWsHp9n2H9-7">
          <mxGeometry x="459.47" y="70" width="41.05" height="40" as="geometry" />
        </mxCell>
        <mxCell id="eLMidbIIFvHWsHp9n2H9-12" value="Private subnet" style="points=[[0,0],[0.25,0],[0.5,0],[0.75,0],[1,0],[1,0.25],[1,0.5],[1,0.75],[1,1],[0.75,1],[0.5,1],[0.25,1],[0,1],[0,0.75],[0,0.5],[0,0.25]];outlineConnect=0;gradientColor=none;html=1;whiteSpace=wrap;fontSize=12;fontStyle=0;container=1;pointerEvents=0;collapsible=0;recursiveResize=0;shape=mxgraph.aws4.group;grIcon=mxgraph.aws4.group_security_group;grStroke=0;strokeColor=#147EBA;fillColor=#E6F2F8;verticalAlign=top;align=left;spacingLeft=30;fontColor=#147EBA;dashed=0;" vertex="1" parent="eLMidbIIFvHWsHp9n2H9-1">
          <mxGeometry x="140" y="250" width="130" height="130" as="geometry" />
        </mxCell>
        <mxCell id="eLMidbIIFvHWsHp9n2H9-18" value="Amazon EC2" style="sketch=0;outlineConnect=0;fontColor=#232F3E;gradientColor=none;strokeColor=#ffffff;fillColor=#232F3E;dashed=0;verticalLabelPosition=middle;verticalAlign=bottom;align=center;html=1;whiteSpace=wrap;fontSize=10;fontStyle=1;spacing=3;shape=mxgraph.aws4.productIcon;prIcon=mxgraph.aws4.ec2;" vertex="1" parent="eLMidbIIFvHWsHp9n2H9-12">
          <mxGeometry x="24" y="30" width="80" height="100" as="geometry" />
        </mxCell>
        <mxCell id="eLMidbIIFvHWsHp9n2H9-13" value="Private subnet" style="points=[[0,0],[0.25,0],[0.5,0],[0.75,0],[1,0],[1,0.25],[1,0.5],[1,0.75],[1,1],[0.75,1],[0.5,1],[0.25,1],[0,1],[0,0.75],[0,0.5],[0,0.25]];outlineConnect=0;gradientColor=none;html=1;whiteSpace=wrap;fontSize=12;fontStyle=0;container=1;pointerEvents=0;collapsible=0;recursiveResize=0;shape=mxgraph.aws4.group;grIcon=mxgraph.aws4.group_security_group;grStroke=0;strokeColor=#147EBA;fillColor=#E6F2F8;verticalAlign=top;align=left;spacingLeft=30;fontColor=#147EBA;dashed=0;" vertex="1" parent="eLMidbIIFvHWsHp9n2H9-1">
          <mxGeometry x="140" y="400" width="130" height="130" as="geometry" />
        </mxCell>
        <mxCell id="eLMidbIIFvHWsHp9n2H9-15" value="" style="sketch=0;outlineConnect=0;fontColor=#232F3E;gradientColor=none;fillColor=#2E27AD;strokeColor=none;dashed=0;verticalLabelPosition=bottom;verticalAlign=top;align=center;html=1;fontSize=12;fontStyle=0;aspect=fixed;pointerEvents=1;shape=mxgraph.aws4.rds_instance;" vertex="1" parent="eLMidbIIFvHWsHp9n2H9-13">
          <mxGeometry x="26" y="40" width="78" height="78" as="geometry" />
        </mxCell>
        <mxCell id="eLMidbIIFvHWsHp9n2H9-21" value="" style="sketch=0;outlineConnect=0;fontColor=#232F3E;gradientColor=none;fillColor=#3F8624;strokeColor=none;dashed=0;verticalLabelPosition=bottom;verticalAlign=top;align=center;html=1;fontSize=12;fontStyle=0;aspect=fixed;pointerEvents=1;shape=mxgraph.aws4.bucket;" vertex="1" parent="eLMidbIIFvHWsHp9n2H9-1">
          <mxGeometry x="200" y="190" width="28.85" height="30" as="geometry" />
        </mxCell>
        <mxCell id="eLMidbIIFvHWsHp9n2H9-22" value="" style="sketch=0;outlineConnect=0;fontColor=#232F3E;gradientColor=none;fillColor=#232F3D;strokeColor=none;dashed=0;verticalLabelPosition=bottom;verticalAlign=top;align=center;html=1;fontSize=12;fontStyle=0;aspect=fixed;pointerEvents=1;shape=mxgraph.aws4.mobile_client;" vertex="1" parent="eLMidbIIFvHWsHp9n2H9-1">
          <mxGeometry x="220" y="140" width="19.97" height="38" as="geometry" />
        </mxCell>
        <mxCell id="eLMidbIIFvHWsHp9n2H9-23" value="" style="sketch=0;outlineConnect=0;fontColor=#232F3E;gradientColor=none;fillColor=#232F3D;strokeColor=none;dashed=0;verticalLabelPosition=bottom;verticalAlign=top;align=center;html=1;fontSize=12;fontStyle=0;aspect=fixed;pointerEvents=1;shape=mxgraph.aws4.client;" vertex="1" parent="eLMidbIIFvHWsHp9n2H9-1">
          <mxGeometry x="164.47" y="140" width="41.05" height="40" as="geometry" />
        </mxCell>
        <mxCell id="eLMidbIIFvHWsHp9n2H9-27" style="edgeStyle=orthogonalEdgeStyle;rounded=0;orthogonalLoop=1;jettySize=auto;html=1;exitX=0;exitY=0.5;exitDx=0;exitDy=0;exitPerimeter=0;" edge="1" parent="eLMidbIIFvHWsHp9n2H9-1" source="eLMidbIIFvHWsHp9n2H9-16" target="eLMidbIIFvHWsHp9n2H9-18">
          <mxGeometry relative="1" as="geometry">
            <Array as="points">
              <mxPoint x="320" y="155" />
              <mxPoint x="320" y="240" />
              <mxPoint x="204" y="240" />
            </Array>
          </mxGeometry>
        </mxCell>
        <mxCell id="eLMidbIIFvHWsHp9n2H9-28" value="" style="sketch=0;points=[[0,0,0],[0.25,0,0],[0.5,0,0],[0.75,0,0],[1,0,0],[0,1,0],[0.25,1,0],[0.5,1,0],[0.75,1,0],[1,1,0],[0,0.25,0],[0,0.5,0],[0,0.75,0],[1,0.25,0],[1,0.5,0],[1,0.75,0]];points=[[0,0,0],[0.25,0,0],[0.5,0,0],[0.75,0,0],[1,0,0],[0,1,0],[0.25,1,0],[0.5,1,0],[0.75,1,0],[1,1,0],[0,0.25,0],[0,0.5,0],[0,0.75,0],[1,0.25,0],[1,0.5,0],[1,0.75,0]];outlineConnect=0;fontColor=#232F3E;gradientColor=#F34482;gradientDirection=north;fillColor=#BC1356;strokeColor=#ffffff;dashed=0;verticalLabelPosition=bottom;verticalAlign=top;align=center;html=1;fontSize=12;fontStyle=0;aspect=fixed;shape=mxgraph.aws4.resourceIcon;resIcon=mxgraph.aws4.cloudwatch_2;" vertex="1" parent="eLMidbIIFvHWsHp9n2H9-1">
          <mxGeometry x="680" y="276" width="78" height="78" as="geometry" />
        </mxCell>
        <mxCell id="eLMidbIIFvHWsHp9n2H9-38" value="The 3-tier architecture is presented here.&lt;br&gt;For the client side (frontend), an S3 bucket containing the CSS, HTML, and JS files is used for hosting a simple website.&lt;br&gt;For the server side (backend), an Amazon EC2 instance is proposed to contain the&amp;nbsp;Apache Web Server and a Java application)&lt;br&gt;For the database side, since MySQL should be used, Amazon RDS is proposed.&lt;br&gt;Two availability zones are chosen and the architecture is duplicated in each availability zone to prevent the website from going down in case of emergencies.&lt;br&gt;" style="text;html=1;align=left;verticalAlign=middle;resizable=0;points=[];autosize=1;strokeColor=none;fillColor=none;" vertex="1" parent="1">
          <mxGeometry x="35" y="590" width="850" height="90" as="geometry" />
        </mxCell>
      </root>
    </mxGraphModel>
  </diagram>
</mxfile>
